<svg width="26" height="26" viewBox="0 0 26 26" fill="none" xmlns="http://www.w3.org/2000/svg">
<path fill-rule="evenodd" clip-rule="evenodd" d="M13 26C20.1797 26 26 20.1797 26 13C26 5.8203 20.1797 0 13 0C5.8203 0 0 5.8203 0 13C0 20.1797 5.8203 26 13 26ZM12 3V13H14V3H12ZM21 13C21 17.4183 17.4183 21 13 21C8.58172 21 5 17.4183 5 13C5 10.0545 6.59182 7.48086 8.96212 6.09231L9.03126 8.5C7.78563 9.59942 7 11.208 7 13C7 16.3137 9.68629 19 13 19C16.3137 19 19 16.3137 19 13C19 11.2413 18.2434 9.65942 17.0379 8.56198V6.09231C19.4082 7.48086 21 10.0545 21 13Z" fill="#BB5D2B"/>
</svg>
