<svg width="28" height="28" viewBox="0 0 28 28" fill="none" xmlns="http://www.w3.org/2000/svg">
<path fill-rule="evenodd" clip-rule="evenodd" d="M26.5585 10.8889H23.939C23.5179 10.8889 23.171 10.6571 23.0098 10.2682C22.8485 9.87933 22.9304 9.4697 23.2276 9.17207L25.0797 7.32044C25.3519 7.04822 25.5018 6.68578 25.5018 6.30104C25.5018 5.91578 25.3519 5.55385 25.0797 5.28111L22.7189 2.9203C22.1744 2.37585 21.225 2.37481 20.6796 2.9203L18.8279 4.77193C18.5303 5.06904 18.1196 5.152 17.7318 4.99022C17.3429 4.82896 17.1111 4.48207 17.1111 4.06104V1.44148C17.1111 0.646593 16.4645 0 15.6696 0H12.3304C11.5355 0 10.8889 0.646593 10.8889 1.44148V4.06104C10.8889 4.48207 10.6571 4.82896 10.2682 4.99022C9.88037 5.15252 9.4697 5.06904 9.17207 4.77193L7.32044 2.9203C6.77496 2.37481 5.82556 2.37585 5.28111 2.9203L2.9203 5.28111C2.64807 5.55333 2.49822 5.91578 2.49822 6.30104C2.49822 6.68578 2.64807 7.0477 2.9203 7.32044L4.77244 9.17207C5.06956 9.4697 5.15096 9.87933 4.99022 10.2682C4.82948 10.6571 4.48207 10.8889 4.06104 10.8889H1.44148C0.646593 10.8889 0 11.5355 0 12.3304V15.6691C0 16.4645 0.646593 17.1111 1.44148 17.1111H4.06104C4.48207 17.1111 4.82896 17.3429 4.99022 17.7318C5.15148 18.1207 5.06956 18.5303 4.77244 18.8279L2.9203 20.6796C2.64807 20.9518 2.49822 21.3142 2.49822 21.699C2.49822 22.0842 2.64807 22.4461 2.9203 22.7189L5.28111 25.0797C5.82607 25.6247 6.77496 25.6257 7.32044 25.0797L9.17207 23.2276C9.4697 22.9304 9.87881 22.8485 10.2682 23.0098C10.6571 23.171 10.8889 23.5179 10.8889 23.939V26.5585C10.8889 27.3534 11.5355 28 12.3304 28H15.6691C16.464 28 17.1106 27.3534 17.1106 26.5585V23.939C17.1106 23.5179 17.3424 23.171 17.7313 23.0098C18.1207 22.848 18.5298 22.9304 18.8274 23.2276L20.679 25.0797C21.2245 25.6252 22.1739 25.6241 22.7184 25.0797L25.0792 22.7189C25.3514 22.4467 25.5013 22.0842 25.5013 21.699C25.5013 21.3142 25.3514 20.9523 25.0792 20.6796L23.227 18.8279C22.9299 18.5303 22.8485 18.1207 23.0093 17.7318C23.17 17.3429 23.5179 17.1111 23.939 17.1111H26.5585C27.3534 17.1111 28 16.4645 28 15.6696V12.3304C28 11.5355 27.3534 10.8889 26.5585 10.8889ZM9.33325 14C9.33325 11.4266 11.4265 9.33333 13.9999 9.33333C16.5733 9.33333 18.6666 11.4266 18.6666 14C18.6666 16.5734 16.5733 18.6667 13.9999 18.6667C11.4265 18.6667 9.33325 16.5734 9.33325 14Z" fill="#484C54"/>
</svg>
